<mxfile host="app.diagrams.net" modified="2022-04-07T13:50:21.867Z" agent="5.0 (X11)" etag="LP0vOMscaxABlhDK9hSy" version="17.4.0" type="github">
  <diagram id="drJ8yxhPniuHiTQkFM9J" name="Page-1">
    <mxGraphModel dx="1422" dy="712" grid="1" gridSize="10" guides="1" tooltips="1" connect="1" arrows="1" fold="1" page="1" pageScale="1" pageWidth="1169" pageHeight="827" math="0" shadow="0">
      <root>
        <mxCell id="0" />
        <mxCell id="1" parent="0" />
        <mxCell id="SsTML2EAIHHSghLiwWzD-4" style="edgeStyle=orthogonalEdgeStyle;rounded=0;orthogonalLoop=1;jettySize=auto;html=1;exitX=0;exitY=0.25;exitDx=0;exitDy=0;entryX=1;entryY=0.25;entryDx=0;entryDy=0;" edge="1" parent="1" source="SsTML2EAIHHSghLiwWzD-1" target="SsTML2EAIHHSghLiwWzD-2">
          <mxGeometry relative="1" as="geometry" />
        </mxCell>
        <mxCell id="SsTML2EAIHHSghLiwWzD-1" value="" style="rounded=0;whiteSpace=wrap;html=1;" vertex="1" parent="1">
          <mxGeometry x="520" y="260" width="120" height="60" as="geometry" />
        </mxCell>
        <mxCell id="SsTML2EAIHHSghLiwWzD-3" style="edgeStyle=orthogonalEdgeStyle;rounded=0;orthogonalLoop=1;jettySize=auto;html=1;exitX=1;exitY=0.75;exitDx=0;exitDy=0;entryX=0;entryY=0.75;entryDx=0;entryDy=0;" edge="1" parent="1" source="SsTML2EAIHHSghLiwWzD-2" target="SsTML2EAIHHSghLiwWzD-1">
          <mxGeometry relative="1" as="geometry" />
        </mxCell>
        <mxCell id="SsTML2EAIHHSghLiwWzD-2" value="" style="rounded=0;whiteSpace=wrap;html=1;" vertex="1" parent="1">
          <mxGeometry x="340" y="260" width="120" height="60" as="geometry" />
        </mxCell>
      </root>
    </mxGraphModel>
  </diagram>
</mxfile>
